<svg width="200" height="200" viewBox="0 0 200 200" xmlns="http://www.w3.org/2000/svg">
  <defs>
    <!-- Gradient for Background -->
    <linearGradient id="bgGradient" x1="0%" y1="0%" x2="100%" y2="100%">
      <stop offset="0%" stop-color="#1E3A5F"/>
      <stop offset="100%" stop-color="#2E5A88"/>
    </linearGradient>

    <!-- Glow Effect for Letter -->
    <filter id="letterGlow" x="-20%" y="-20%" width="140%" height="140%">
      <feGaussianBlur in="SourceGraphic" stdDeviation="3" result="blur"/>
      <feColorMatrix type="matrix" values="0 0 0 0 1  0 0 0 0 0.9  0 0 0 0 0.7  0 0 0 0.4 0" result="coloredBlur"/>
      <feMerge>
        <feMergeNode in="coloredBlur"/>
        <feMergeNode in="SourceGraphic"/>
      </feMerge>
    </filter>

    <!-- Soft Shadow for Depth -->
    <filter id="softShadow" x="-20%" y="-20%" width="140%" height="140%">
      <feDropShadow dx="2" dy="3" stdDeviation="3" flood-color="#1A2E40" flood-opacity="0.5"/>
    </filter>

    <!-- Arabesque Pattern Clip Path -->
    <clipPath id="arabesqueClip">
      <rect x="10" y="10" width="180" height="180" rx="20" ry="20"/>
    </clipPath>
  </defs>

  <!-- Background with Gradient and Rounded Corners -->
  <rect x="0" y="0" width="200" height="200" rx="25" ry="25" fill="url(#bgGradient)" filter="url(#softShadow)"/>

  <!-- Arabesque Border Pattern -->
  <g clip-path="url(#arabesqueClip)">
    <g transform="translate(100, 100)">
      <!-- Geometric Star Pattern (8-pointed star) -->
      <path d="M-70,0 L-50,-50 L0,-70 L50,-50 L70,0 L50,50 L0,70 L-50,50 Z" 
            fill="none" stroke="#D4AF37" stroke-width="2" opacity="0.7">
        <animateTransform attributeName="transform" type="rotate" from="0 0 0" to="360 0 0" dur="20s" repeatCount="indefinite"/>
      </path>
      <!-- Curved Arabesque Flourishes -->
      <path d="M-80,0 Q-40,-40 0,-40 Q40,-40 80,0 Q40,40 0,40 Q-40,40 -80,0" 
            fill="none" stroke="#F5E6AB" stroke-width="1.5" opacity="0.6"/>
      <path d="M0,-80 Q40,-40 40,0 Q40,40 0,80 Q-40,40 -40,0 Q-40,-40 0,-80" 
            fill="none" stroke="#F5E6AB" stroke-width="1.5" opacity="0.6"/>
    </g>
  </g>

  <!-- Calligraphic Letter و -->
  <text x="100" y="130" font-family="'Noto Naskh Arabic', Arial" 
        font-size="90" text-anchor="middle" fill="#F5F5F5" 
        font-weight="700" direction="rtl" filter="url(#letterGlow)">و</text>

  <!-- Subtle Ornamental Accents -->
  <g transform="translate(100, 160)">
    <path d="M-20,0 Q-10,-10 0,0 Q10,10 20,0" fill="none" stroke="#D4AF37" stroke-width="1.5" opacity="0.8"/>
  </g>
</svg>